<svg width="131" height="130" viewBox="0 0 131 130" fill="none" xmlns="http://www.w3.org/2000/svg">
<path d="M6.13023 91.4619C2.50953 83.3385 0.594419 74.5585 0.503404 65.6652C0.412388 56.7719 2.14741 47.9545 5.60109 39.7587L9.37991 41.3511C6.14411 49.0299 4.51854 57.291 4.60382 65.6232C4.68909 73.9555 6.48339 82.1816 9.87567 89.7925L6.13023 91.4619Z" fill="#D6F8F8"/>
<path d="M7.51194 35.6336C12.7274 25.3349 20.5916 16.6109 30.296 10.3586C40.0004 4.10634 51.1949 0.551346 62.7285 0.0591151L62.9033 4.15601C52.0973 4.61719 41.6091 7.94791 32.5169 13.8058C23.4248 19.6636 16.0567 27.8372 11.1702 37.4862L7.51194 35.6336Z" fill="#94EBE5"/>
<path d="M67.0622 0.0187767C77.9571 0.280706 88.6113 3.27776 98.0449 8.73431C107.479 14.1909 115.389 21.9317 121.048 31.2451L117.544 33.3746C112.241 24.6488 104.83 17.3962 95.9918 12.2839C87.1533 7.1716 77.1713 4.36363 66.9637 4.11822L67.0622 0.0187767Z" fill="#68CEC7"/>
<path d="M123.298 35.2618C127.91 44.2259 130.374 54.1399 130.495 64.2202C130.616 74.3004 128.391 84.2707 123.995 93.3428L120.305 91.5548C124.423 83.055 126.508 73.7137 126.395 64.2694C126.282 54.825 123.973 45.5365 119.652 37.1379L123.298 35.2618Z" fill="#4DA7A2"/>
</svg>
