<svg width="27" height="27" viewBox="0 0 27 27" fill="none" xmlns="http://www.w3.org/2000/svg">
<path d="M8.02984 20.7635C7.83181 20.7537 7.67225 20.7382 7.46849 20.6899C7.26473 20.6416 7.10516 20.6261 6.93987 20.572C6.57081 20.4698 6.23449 20.3233 5.89244 20.1384C5.21407 19.8069 4.62817 19.3045 4.14046 18.6695C3.65848 18.073 3.31315 17.3381 3.16585 16.6131C3.07011 16.2343 3.05702 15.8824 3.0382 15.4921C3.04801 15.294 3.06356 15.1345 3.07338 14.9364C3.0832 14.7384 3.13721 14.5731 3.14702 14.3751L3.26568 14.9078C3.29432 15.1001 3.35569 15.2482 3.4228 15.4348C3.51281 15.7752 3.64128 16.1099 3.76403 16.4061C4.01525 17.037 4.33766 17.618 4.76973 18.1433C5.20179 18.6687 5.66659 19.1499 6.24104 19.5754C6.50617 19.7718 6.80976 19.9624 7.11335 20.1531C7.24591 20.2513 7.41694 20.3437 7.58796 20.4362L8.02984 20.7635ZM8.12068 22.1653C8.01676 22.2594 7.86864 22.3208 7.72053 22.3821C7.57242 22.4435 7.46277 22.4991 7.30893 22.5221C7.04544 22.6006 6.74349 22.6849 6.43008 22.6923C5.84745 22.7397 5.20917 22.6775 4.6691 22.4828C4.09056 22.2938 3.56603 21.9394 3.18388 21.4853C2.99567 21.2774 2.80173 21.0311 2.64625 20.7791C2.59061 20.6694 2.52923 20.5213 2.46786 20.3732C2.45068 20.2578 2.39503 20.1482 2.37212 19.9944C2.50468 20.0925 2.59879 20.1965 2.68717 20.2619C2.81973 20.3601 2.91384 20.4641 3.00221 20.5295C3.22315 20.6932 3.40563 20.8626 3.62085 20.9878C4.057 21.2766 4.48743 21.527 4.98332 21.689C5.44075 21.8568 5.96937 21.9746 6.4538 22.0597C6.69602 22.1023 6.97097 22.1006 7.25165 22.1375C7.37276 22.1587 7.5266 22.1358 7.6477 22.1571C7.84573 22.1669 7.96111 22.1497 8.12068 22.1653ZM14.0287 2.17911C14.2267 2.18892 14.392 2.24293 14.5958 2.29121C14.7996 2.33949 14.9648 2.3935 15.1301 2.4475C15.5049 2.58825 15.8413 2.73472 16.1833 2.91966C16.8674 3.28953 17.459 3.83042 17.9083 4.47115C18.3575 5.11187 18.6644 5.85243 18.7732 6.58317C18.8305 6.96777 18.8436 7.31964 18.824 7.7157C18.8142 7.91373 18.7986 8.07329 18.7503 8.27705C18.702 8.48081 18.6865 8.64038 18.6325 8.80567L18.5138 8.27296C18.4852 8.08066 18.4623 7.92682 18.3952 7.74025L18.1251 6.71901C17.9124 6.08238 17.5842 5.46293 17.1849 4.89339C16.7856 4.32386 16.3208 3.8427 15.7848 3.41146C15.5139 3.17661 15.2103 2.98594 14.9395 2.75109C14.8069 2.6529 14.6359 2.56043 14.4649 2.46796L14.0287 2.17911ZM17.3518 1.52691C17.5114 1.54245 17.6325 1.56373 17.7593 1.62346C17.8804 1.64474 18.0457 1.69875 18.1726 1.75848C18.4263 1.87795 18.6799 1.99742 18.9393 2.15535C19.4197 2.47694 19.8346 2.88691 20.107 3.39671C20.418 3.90078 20.5808 4.46622 20.5899 5.05458C20.5915 5.32953 20.5547 5.61021 20.5178 5.89088C20.4966 6.01199 20.4426 6.17729 20.4213 6.2984C20.3616 6.42523 20.3403 6.54634 20.2421 6.67891L20.1848 6.29431L20.1275 5.90971C20.0874 5.64049 20.0146 5.41545 19.9802 5.18469C19.8288 4.69617 19.6832 4.24611 19.4279 3.85169C19.1668 3.41881 18.8788 3.06858 18.5465 2.68561C18.3641 2.51623 18.1759 2.30838 17.9934 2.13899C17.8993 2.03507 17.8109 1.9696 17.6783 1.87141C17.5728 1.69057 17.4402 1.59237 17.3518 1.52691Z" fill="#42ADE2"/>
<path d="M3.93656 9.38259C3.21891 9.8433 3.08717 10.8064 3.54788 11.5241L9.90037 20.9173L12.4035 19.2472L6.04532 9.81546C5.58461 9.09782 4.64848 8.88343 3.93656 9.38259ZM17.864 15.5247L20.5096 13.7547L13.2529 3.04155C12.7537 2.32963 11.7791 2.12097 11.0287 2.62586C10.3168 3.12503 10.1082 4.09962 10.613 4.85L17.864 15.5247Z" fill="#FFDD67"/>
<path d="M11.0615 2.58173C10.9903 2.63165 10.9192 2.68157 10.8537 2.76994C11.5558 2.46881 12.3765 2.70038 12.8258 3.34111L20.0825 14.0542L20.5481 13.749L13.2914 3.03588C12.7865 2.2855 11.8119 2.07684 11.0615 2.58173Z" fill="#EBA352"/>
<path d="M12.3977 19.2087L15.1472 17.3446L7.74069 6.41789C7.2358 5.66752 6.17855 5.43185 5.42817 5.93674C4.6778 6.44164 4.48059 7.49315 4.98548 8.24353L12.3977 19.2087Z" fill="#FFDD67"/>
<path d="M5.43397 5.97521C5.36278 6.02513 5.29159 6.07504 5.22613 6.16342C5.92822 5.86228 6.8259 6.0824 7.28088 6.76159L11.8748 13.5862L12.7954 13.9601L7.74649 6.45636C7.23587 5.66752 6.22281 5.46459 5.43397 5.97521Z" fill="#EBA352"/>
<path d="M14.5483 16.4903L17.2978 14.6262L9.89132 3.69952C9.38643 2.94915 8.32919 2.71348 7.58454 3.25683C6.83416 3.76173 6.63695 4.81324 7.14185 5.56362L14.5483 16.4903Z" fill="#FFDD67"/>
<path d="M7.57869 3.21845C7.50749 3.26836 7.44203 3.35674 7.37084 3.40666C8.07294 3.10552 8.97061 3.32564 9.42559 4.00482L14.6243 11.7222L15.5449 12.0961L9.8912 3.6996C9.38058 2.91076 8.32907 2.71355 7.57869 3.21845ZM3.93646 9.38271C3.86527 9.43263 3.79408 9.48254 3.72862 9.57092C4.39226 9.27551 5.17455 9.51281 5.58534 10.1593L9.36918 15.7679L10.2898 16.1418L6.05095 9.85404C5.58452 9.09793 4.64838 8.88354 3.93646 9.38271Z" fill="#EBA352"/>
<path d="M23.3023 5.31883C22.1436 4.66583 20.5831 5.80245 20.1494 8.6976C19.859 10.7065 19.868 11.2949 18.7232 12.0551L17.8189 10.7352C17.8189 10.7352 7.68106 17.631 8.23014 18.4141C8.23014 18.4141 10.145 22.2961 12.6563 23.8484C16.3878 26.2019 23.6657 22.0121 22.9178 14.6147C22.4742 10.317 24.5494 6.03729 23.3023 5.31883Z" fill="#FFDD67"/>
<path d="M23.3023 5.31894C23.0871 5.19374 22.8449 5.15119 22.6084 5.1471C22.6526 5.17983 22.7295 5.16837 22.7737 5.2011C24.0593 5.91384 23.1706 8.12979 22.7917 10.0733C22.471 11.6149 22.2329 13.1836 22.5275 14.6336C23.786 20.9722 17.8157 24.9671 13.7979 24.3862C17.8018 25.4017 24.3547 21.3592 23.0561 14.7515C22.7615 13.3014 22.9726 11.8154 23.3204 10.1911C23.6608 8.25335 24.5494 6.0374 23.3023 5.31894Z" fill="#EBA352"/>
<path d="M19.0464 11.8497C16.7019 12.4741 13.7119 16.4183 16.729 19.7823C14.36 16.2824 16.9433 13.303 18.6961 12.1377C18.8655 11.9553 19.0464 11.8497 19.0464 11.8497Z" fill="#EBA352"/>
</svg>
