<svg width="17" height="17" viewBox="0 0 17 17" fill="none" xmlns="http://www.w3.org/2000/svg">
<g clip-path="url(#clip0_74_1257)">
<path d="M6.51155 1.04257C6.51155 0.910714 6.56393 0.78426 6.65717 0.691025C6.7504 0.597789 6.87686 0.54541 7.00871 0.54541H9.99166C10.1235 0.54541 10.25 0.597789 10.3432 0.691025C10.4364 0.78426 10.4888 0.910714 10.4888 1.04257C10.4888 1.17442 10.4364 1.30088 10.3432 1.39411C10.25 1.48735 10.1235 1.53973 9.99166 1.53973H9.49451V2.60365C10.8486 2.79911 12.115 3.38923 13.1357 4.30029C14.1563 5.21135 14.8858 6.40295 15.2331 7.72623C15.5804 9.04952 15.5301 10.4458 15.0885 11.7407C14.6468 13.0355 13.8334 14.1715 12.7499 15.0068L13.3475 15.6054C13.4408 15.6986 13.4933 15.8251 13.4934 15.957C13.4935 16.0889 13.4412 16.2155 13.348 16.3088C13.2548 16.4022 13.1283 16.4547 12.9963 16.4548C12.8644 16.4549 12.7379 16.4026 12.6445 16.3093L11.9027 15.5676C10.8637 16.1508 9.69176 16.4563 8.50019 16.4545C7.30862 16.4563 6.13671 16.1508 5.09763 15.5676L4.35587 16.3093C4.30965 16.3555 4.25478 16.3921 4.19441 16.417C4.13404 16.442 4.06935 16.4548 4.00403 16.4548C3.9387 16.4547 3.87403 16.4418 3.81369 16.4168C3.75336 16.3917 3.69855 16.3551 3.65239 16.3088C3.60623 16.2626 3.56963 16.2077 3.54467 16.1474C3.51972 16.087 3.5069 16.0223 3.50694 15.957C3.50704 15.8251 3.55953 15.6986 3.65289 15.6054L4.25147 15.0068C3.16794 14.1716 2.35453 13.0357 1.91283 11.7409C1.47114 10.4461 1.42075 9.04987 1.76795 7.72662C2.11515 6.40336 2.84456 5.21175 3.86505 4.30062C4.88554 3.3895 6.15188 2.79926 7.50587 2.60365V1.53973H7.00871C6.87686 1.53973 6.7504 1.48735 6.65717 1.39411C6.56393 1.30088 6.51155 1.17442 6.51155 1.04257ZM8.99735 6.01416C8.99735 5.88231 8.94497 5.75585 8.85173 5.66262C8.7585 5.56938 8.63204 5.517 8.50019 5.517C8.36833 5.517 8.24188 5.56938 8.14864 5.66262C8.05541 5.75585 8.00303 5.88231 8.00303 6.01416V9.35706L6.58215 11.7235C6.51424 11.8367 6.49406 11.9721 6.52604 12.1002C6.55802 12.2282 6.63954 12.3382 6.75267 12.4061C6.86581 12.474 7.00128 12.4942 7.12929 12.4622C7.2573 12.4303 7.36737 12.3487 7.43527 12.2356L8.92675 9.74981C8.97298 9.67259 8.99738 9.58427 8.99735 9.49427V6.01416ZM1.40076 5.9018C1.14349 5.67802 0.935006 5.40369 0.788284 5.09589C0.641562 4.78809 0.559733 4.4534 0.547887 4.11263C0.536042 3.77185 0.594432 3.43228 0.719427 3.11504C0.844422 2.79779 1.03335 2.50966 1.27446 2.26855C1.51557 2.02744 1.80371 1.83851 2.12095 1.71351C2.4382 1.58852 2.77776 1.53013 3.11854 1.54197C3.45931 1.55382 3.79401 1.63565 4.10181 1.78237C4.40961 1.92909 4.68393 2.13757 4.90772 2.39484C3.3963 3.1622 2.16812 4.39039 1.40076 5.9018ZM12.0927 2.39484C12.3164 2.13757 12.5908 1.92909 12.8986 1.78237C13.2064 1.63565 13.5411 1.55382 13.8818 1.54197C14.2226 1.53013 14.5622 1.58852 14.8794 1.71351C15.1967 1.83851 15.4848 2.02744 15.7259 2.26855C15.967 2.50966 16.156 2.79779 16.2809 3.11504C16.4059 3.43228 16.4643 3.77185 16.4525 4.11263C16.4406 4.4534 16.3588 4.78809 16.2121 5.09589C16.0654 5.40369 15.8569 5.67802 15.5996 5.9018C14.8323 4.39039 13.6041 3.1622 12.0927 2.39484Z" fill="white"/>
</g>
<defs>
<clipPath id="clip0_74_1257">
<rect width="15.9091" height="15.9091" fill="white" transform="translate(0.54541 0.54541)"/>
</clipPath>
</defs>
</svg>
