<svg width="14" height="14" viewBox="0 0 14 14" fill="none" xmlns="http://www.w3.org/2000/svg">
<path d="M1.88625 13.1363C1.88625 13.1363 0.863525 13.1363 0.863525 12.1135C0.863525 11.0908 1.88625 8.02262 6.99989 8.02262C12.1135 8.02262 13.1363 11.0908 13.1363 12.1135C13.1363 13.1363 12.1135 13.1363 12.1135 13.1363H1.88625ZM6.99989 6.99989C7.81362 6.99989 8.59403 6.67663 9.16942 6.10124C9.74482 5.52584 10.0681 4.74544 10.0681 3.93171C10.0681 3.11797 9.74482 2.33757 9.16942 1.76218C8.59403 1.18678 7.81362 0.863525 6.99989 0.863525C6.18616 0.863525 5.40575 1.18678 4.83036 1.76218C4.25496 2.33757 3.93171 3.11797 3.93171 3.93171C3.93171 4.74544 4.25496 5.52584 4.83036 6.10124C5.40575 6.67663 6.18616 6.99989 6.99989 6.99989Z" fill="white"/>
</svg>
