<svg width="16" height="16" viewBox="0 0 16 16" fill="none" xmlns="http://www.w3.org/2000/svg">
<path fill-rule="evenodd" clip-rule="evenodd" d="M6 13.3334H2.33333C1.59695 13.3334 1 12.7365 1 12.0001V4.00008C1 3.2637 1.59695 2.66675 2.33333 2.66675H6C6.8178 2.66675 7.54387 3.05942 8 3.6665C8.45613 3.05942 9.1822 2.66675 10 2.66675H13.6667C14.4031 2.66675 15 3.2637 15 4.00008V12.0001C15 12.7365 14.4031 13.3334 13.6667 13.3334H10C9.40587 13.3334 8.8924 13.6788 8.64953 14.1798C8.52307 14.4406 8.2898 14.6667 8 14.6667C7.7102 14.6667 7.47693 14.4406 7.35047 14.1798C7.1076 13.6788 6.59413 13.3334 6 13.3334ZM2 4.00008C2 3.81599 2.14924 3.66675 2.33333 3.66675H6C6.8284 3.66675 7.5 4.33832 7.5 5.16675V12.8332C7.0822 12.5194 6.56281 12.3334 6 12.3334H2.33333C2.14924 12.3334 2 12.1841 2 12.0001V4.00008ZM10 3.66675C9.1716 3.66675 8.5 4.33832 8.5 5.16675V12.8332C8.9178 12.5194 9.4372 12.3334 10 12.3334H13.6667C13.8507 12.3334 14 12.1841 14 12.0001V4.00008C14 3.81599 13.8507 3.66675 13.6667 3.66675H10Z" fill="black"/>
</svg>
