<svg width="17" height="17" viewBox="0 0 17 17" fill="none" xmlns="http://www.w3.org/2000/svg">
<g clip-path="url(#clip0_74_1251)">
<path d="M9.78574 0.54541H4.52282C3.9954 0.54541 3.48958 0.754927 3.11664 1.12787C2.7437 1.50081 2.53418 2.00663 2.53418 2.53405V14.4659C2.53418 14.9933 2.7437 15.4991 3.11664 15.872C3.48958 16.245 3.9954 16.4545 4.52282 16.4545H12.4774C13.0048 16.4545 13.5106 16.245 13.8835 15.872C14.2565 15.4991 14.466 14.9933 14.466 14.4659V5.22567C14.4659 4.96198 14.3611 4.70911 14.1747 4.52268L10.4887 0.836745C10.3023 0.650262 10.0494 0.545466 9.78574 0.54541V0.54541ZM9.99157 4.02552V2.03689L12.9745 5.01984H10.9859C10.7222 5.01984 10.4693 4.91508 10.2828 4.72861C10.0963 4.54214 9.99157 4.28923 9.99157 4.02552ZM11.3379 8.35479L8.35492 11.3377C8.30874 11.384 8.25387 11.4208 8.19347 11.4458C8.13307 11.4709 8.06832 11.4838 8.00293 11.4838C7.93754 11.4838 7.87278 11.4709 7.81238 11.4458C7.75199 11.4208 7.69712 11.384 7.65094 11.3377L6.15946 9.84626C6.11324 9.80004 6.07657 9.74516 6.05156 9.68477C6.02654 9.62437 6.01367 9.55964 6.01367 9.49427C6.01367 9.4289 6.02654 9.36417 6.05156 9.30378C6.07657 9.24338 6.11324 9.18851 6.15946 9.14229C6.25282 9.04893 6.37943 8.99649 6.51145 8.99649C6.57682 8.99649 6.64155 9.00936 6.70195 9.03438C6.76234 9.05939 6.81722 9.09606 6.86344 9.14229L8.00293 10.2828L10.6339 7.65081C10.7272 7.55745 10.8539 7.50501 10.9859 7.50501C11.1179 7.50501 11.2445 7.55745 11.3379 7.65081C11.4312 7.74416 11.4837 7.87078 11.4837 8.0028C11.4837 8.13482 11.4312 8.26143 11.3379 8.35479Z" fill="white"/>
</g>
<defs>
<clipPath id="clip0_74_1251">
<rect width="15.9091" height="15.9091" fill="white" transform="translate(0.54541 0.54541)"/>
</clipPath>
</defs>
</svg>
