<svg width="148" height="111" viewBox="0 0 148 111" fill="none" xmlns="http://www.w3.org/2000/svg">
<path d="M94.6007 16.5963C95.5467 17.4608 96.4829 18.3544 97.2679 19.3682C97.3322 19.4455 97.3968 19.5226 97.4617 19.5994C101.456 24.3704 103.383 30.7302 102.877 36.8968C102.753 38.2247 102.58 39.5821 102.201 40.8639C102.269 40.8941 102.338 40.9244 102.408 40.9556C102.666 41.0705 102.925 41.186 103.183 41.3018C103.293 41.3514 103.404 41.4007 103.515 41.4499C106.032 42.5667 106.032 42.5667 106.325 43.2849C106.375 43.6088 106.356 43.8739 106.223 44.1744C105.7 44.7456 105.062 45.0238 104.337 45.2657C104.283 45.2839 104.229 45.302 104.174 45.3208C103.929 45.3974 103.71 45.428 103.453 45.4125C103.708 45.1211 104.004 44.9636 104.341 44.7843C104.446 44.728 104.552 44.6713 104.657 44.6143C104.703 44.5897 104.749 44.5651 104.797 44.5397C104.932 44.4618 104.932 44.4618 105.044 44.339C105.146 44.2386 105.146 44.2386 105.294 44.2386C105.451 43.9774 105.499 43.7348 105.515 43.4316C105.36 42.9815 104.857 42.7382 104.451 42.5342C104.265 42.4508 104.078 42.3717 103.89 42.2945C103.824 42.2666 103.757 42.2387 103.688 42.21C103.1 41.9657 102.506 41.7395 101.907 41.5242C101.898 41.5649 101.89 41.6057 101.882 41.6476C101.799 42.037 101.693 42.4065 101.556 42.7802C101.537 42.8344 101.517 42.8885 101.497 42.9442C101.435 43.1176 101.372 43.2907 101.308 43.4637C101.287 43.5231 101.265 43.5824 101.243 43.6435C100.104 46.7524 98.3332 49.5021 96.0897 51.9419C96.0215 52.0175 95.9534 52.0932 95.8852 52.1688C95.369 52.7388 94.826 53.2674 94.2489 53.776C94.2113 53.8094 94.1737 53.8429 94.1349 53.8773C88.8195 58.5765 81.5328 60.3122 74.4171 59.9965C68.5324 59.6082 63.1452 56.9661 58.832 53.0423C58.7633 52.9807 58.6946 52.919 58.6238 52.8555C58.2176 52.4898 57.8211 52.1158 57.433 51.7309C57.3734 51.672 57.3734 51.672 57.3126 51.6119C56.6967 50.9959 56.6967 50.9959 56.6967 50.6213C57.2556 50.7203 57.7916 50.8678 58.335 51.0294C61.0949 51.8297 63.9278 52.4247 66.7843 52.7489C66.8323 52.7544 66.8804 52.7599 66.9299 52.7656C74.1558 53.5859 81.5661 52.4216 93.0007 46.2685C93.1998 46.1094 93.3939 45.9464 93.5863 45.7793C93.6432 45.73 93.6432 45.73 93.7012 45.6797C95.0111 44.5356 96.122 43.1151 96.6788 41.4508C96.6817 41.2796 96.682 41.1084 96.6788 40.9372C96.2416 41.0151 95.8045 41.0933 95.3674 41.1719C95.2193 41.1984 95.0713 41.2249 94.9232 41.2513C94.4279 41.3395 93.9332 41.43 93.439 41.5242C93.3799 41.5354 93.3209 41.5466 93.26 41.5581C92.3312 41.7379 91.4528 42.0235 90.5628 42.3403C90.422 42.39 90.2812 42.4396 90.1404 42.4892C86.8056 43.6691 83.7244 45.2188 80.7099 47.0586C80.5925 47.1301 80.5925 47.1301 80.4727 47.2031C80.0522 47.4614 79.6442 47.7312 79.2413 48.0158C78.8231 48.3054 78.3654 48.615 77.8382 48.5717C77.4923 48.5016 77.1972 48.3778 76.9455 48.1269C76.8989 47.9521 76.8989 47.9521 76.8626 47.7509C76.8503 47.6842 76.8379 47.6174 76.8252 47.5486C76.8163 47.4974 76.8074 47.4461 76.7982 47.3933C76.9197 47.3691 77.0412 47.3449 77.1664 47.3199C77.1815 47.3729 77.1967 47.4258 77.2124 47.4804C77.3469 47.7547 77.5128 47.8696 77.7554 48.0536C77.8889 47.8614 77.9937 47.7095 77.9504 47.4697C77.7944 47.0307 77.6041 46.6181 77.3873 46.2057C77.3348 46.1054 77.3348 46.1054 77.2813 46.003C77.0249 45.5267 76.7356 45.1016 76.3824 44.6917C76.1355 44.4043 76.1355 44.4043 76.1355 44.1653C76.2327 44.1653 76.3299 44.1653 76.43 44.1653C76.5566 44.3005 76.6595 44.4282 76.766 44.5779C76.8313 44.6662 76.8967 44.7543 76.9621 44.8425C77.0126 44.9112 77.0126 44.9112 77.064 44.9813C77.2269 45.2005 77.3968 45.4141 77.5667 45.628C77.6341 45.713 77.7014 45.798 77.7686 45.883C77.8024 45.9257 77.8362 45.9684 77.871 46.0123C77.982 46.1534 78.0923 46.295 78.2024 46.4367C78.2393 46.484 78.2761 46.5313 78.3141 46.58C78.3852 46.6711 78.456 46.7624 78.5265 46.8538C78.6998 47.0846 78.6998 47.0846 78.9335 47.2466C79.1074 47.1687 79.2714 47.0864 79.4386 46.9958C79.4895 46.9688 79.5405 46.9418 79.593 46.9139C79.76 46.8252 79.9266 46.7355 80.0932 46.6459C80.2087 46.5844 80.3241 46.5229 80.4396 46.4614C81.0516 46.1351 81.6615 45.8048 82.27 45.4721C84.8859 44.0436 87.5466 42.8476 90.4109 42.001C90.462 41.9858 90.5131 41.9705 90.5657 41.9548C91.1513 41.7811 91.7332 41.6386 92.335 41.533C92.6826 41.4712 93.0236 41.3943 93.3654 41.3061C93.414 41.2936 93.4626 41.281 93.5126 41.2682C93.7091 41.2172 93.9055 41.1658 94.1017 41.1136C96.0524 40.5976 97.8348 40.7339 99.8128 41.0519C100.044 41.0883 100.275 41.1245 100.506 41.1603C100.647 41.1823 100.789 41.2048 100.931 41.2277C101.26 41.2795 101.572 41.3172 101.907 41.3041C101.931 41.183 101.955 41.062 101.98 40.9372C101.433 40.6392 100.854 40.4448 100.264 40.2495C100.21 40.2317 100.157 40.214 100.102 40.1957C99.0731 39.8555 98.04 39.5945 96.9733 39.3966C96.9087 39.3845 96.8441 39.3725 96.7775 39.3601C96.3777 39.2875 95.9774 39.2275 95.5743 39.1765C95.519 39.1693 95.4636 39.1622 95.4066 39.1548C94.4113 39.031 93.4135 39.0031 92.4117 38.9815C91.8611 38.9693 91.312 38.9505 90.7621 38.9192C90.1034 38.8824 89.4457 38.8645 88.786 38.8614C88.6652 38.8606 88.5445 38.8591 88.4237 38.8569C86.3816 38.8203 84.3489 39.2154 82.3436 39.5622C82.0785 39.6079 81.8133 39.653 81.5482 39.6981C80.725 39.8384 79.9021 39.9797 79.0808 40.1302C79.1742 39.6702 79.298 39.2357 79.4628 38.7959C79.4852 38.7351 79.5076 38.6743 79.5307 38.6117C79.6696 38.2443 79.8277 37.903 80.015 37.5579C80.7516 36.1227 80.7924 34.2391 80.9837 32.654C80.9929 32.5803 81.002 32.5067 81.0114 32.4308C81.0276 32.299 81.0428 32.1672 81.0568 32.0352C81.1256 31.4744 81.3736 31.1085 81.7039 30.6525C82.0536 30.1695 82.1532 29.8684 82.0997 29.2723C82.0367 28.9139 81.9523 28.5619 81.865 28.2086C81.8413 28.1104 81.8176 28.0123 81.794 27.9142C81.5632 26.9615 81.3118 26.0188 80.9952 25.0906C81.0673 25.0921 81.1395 25.0937 81.2138 25.0952C82.8648 25.1273 84.4481 25.0913 86.066 24.7149C86.7205 24.5665 87.4029 24.6512 88.0639 24.7238C88.1125 24.5785 88.1611 24.4332 88.2111 24.2836C88.1223 24.27 88.1223 24.27 88.0317 24.2561C87.9694 24.2409 87.9071 24.2258 87.843 24.2102C87.8187 24.1618 87.7944 24.1134 87.7693 24.0635C87.9151 23.9909 88.0609 23.9182 88.2111 23.8434C88.1139 23.8192 88.0167 23.795 87.9166 23.77C87.9166 23.6974 87.9166 23.6248 87.9166 23.5499C88.1007 23.4261 88.1007 23.4261 88.2848 23.3298C88.0418 23.3298 87.7988 23.3298 87.5485 23.3298C87.5485 23.1846 87.5485 23.0393 87.5485 22.8897C87.4831 22.9427 87.4831 22.9427 87.4164 22.9968C87.3582 23.0432 87.3001 23.0895 87.2401 23.1373C87.1829 23.1832 87.1256 23.2292 87.0667 23.2765C86.7824 23.4756 86.5164 23.5658 86.1725 23.6004C86.116 23.6067 86.0595 23.613 86.0013 23.6196C85.7475 23.6239 85.5044 23.5962 85.2523 23.5687C85.0335 23.5489 84.8165 23.5402 84.5968 23.5345C84.5208 23.5324 84.4448 23.5303 84.3665 23.5282C84.2096 23.5243 84.0528 23.5211 83.8959 23.5184C83.8204 23.5161 83.745 23.5139 83.6672 23.5115C83.5994 23.5101 83.5316 23.5086 83.4618 23.5071C83.246 23.4713 83.1512 23.3917 82.9833 23.2565C82.6232 23.1767 82.3244 23.1932 81.9616 23.2427C81.4863 23.2865 81.1195 23.2006 80.6791 23.0237C80.0106 22.7616 79.3131 22.5993 78.6177 22.4242C78.5064 22.3962 78.395 22.368 78.2837 22.3395C78.1808 22.3133 78.0777 22.2874 77.9746 22.2621C77.6247 22.1725 77.6247 22.1725 77.4609 22.0093C77.4137 21.7681 77.4331 21.6182 77.5547 21.4037C77.6318 21.29 77.7107 21.1775 77.7917 21.0664C78.0692 20.6724 78.1043 20.3572 78.0499 19.8817C77.9183 19.3673 77.5035 19.005 77.1477 18.632C76.9747 18.4492 76.8199 18.2585 76.6693 18.0568C76.2706 17.5374 75.8318 17.1658 75.1783 17.0205C73.3742 16.8127 71.744 17.6358 70.36 18.7217C70.1366 18.9018 69.93 19.0896 69.7295 19.2948C69.8114 19.263 69.8932 19.2313 69.9775 19.1985C70.8082 18.8847 71.4389 18.6807 72.288 19.0607C73.031 19.452 73.3759 20.2165 73.632 20.9822C73.6806 20.9822 73.7292 20.9822 73.7793 20.9822C73.8779 21.0822 73.8779 21.0822 73.9956 21.2252C74.285 21.5663 74.6019 21.8746 74.924 22.1844C75.173 22.4486 75.3214 22.6283 75.3348 22.9951C75.2214 23.3528 75.0334 23.4808 74.7365 23.6967C74.6304 23.7774 74.5246 23.8584 74.419 23.9397C74.3632 23.9825 74.3074 24.0254 74.2498 24.0695C73.9333 24.3225 73.6373 24.5982 73.3375 24.8705C71.8993 26.1487 70.3989 27.3209 68.7715 28.3507C68.5914 28.4648 68.4165 28.5815 68.2417 28.7038C67.8855 28.9499 67.6052 29.1303 67.1611 29.0941C66.9296 29.032 66.7559 28.9128 66.5611 28.7768C66.1844 28.5393 65.7486 28.5136 65.3116 28.5387C65.2131 28.5615 65.1148 28.5856 65.0171 28.6121C65.0809 28.6474 65.1447 28.6828 65.2104 28.7192C65.2924 28.7656 65.3744 28.8119 65.4589 28.8597C65.5409 28.9056 65.6229 28.9516 65.7074 28.9989C65.7712 29.0407 65.835 29.0825 65.9007 29.1256C65.9007 29.174 65.9007 29.2225 65.9007 29.2723C65.8093 29.304 65.8093 29.304 65.7161 29.3362C65.4893 29.4149 65.2626 29.4942 65.036 29.5737C64.9381 29.608 64.8401 29.642 64.7421 29.6759C64.6008 29.7248 64.4598 29.7743 64.3188 29.824C64.2339 29.8536 64.1491 29.8832 64.0617 29.9137C63.8587 29.9978 63.7115 30.0856 63.5445 30.2261C63.938 30.3568 64.3211 30.3041 64.7226 30.2261C64.7226 30.2745 64.7226 30.3229 64.7226 30.3728C64.5532 30.4969 64.5532 30.4969 64.3314 30.6342C64.2588 30.6797 64.1862 30.7251 64.1114 30.772C63.9126 30.8864 63.9126 30.8864 63.6917 30.9597C63.716 31.105 63.7403 31.2502 63.7654 31.3999C64.0594 31.358 64.2497 31.2584 64.5017 31.1064C64.5746 31.1064 64.6475 31.1064 64.7226 31.1064C64.6306 31.3602 64.5256 31.5574 64.3544 31.7667C64.4516 31.8151 64.5488 31.8636 64.6489 31.9135C64.7332 31.8249 64.7332 31.8249 64.8192 31.7346C65.0171 31.5466 65.0171 31.5466 65.238 31.4733C65.238 31.6912 65.238 31.9091 65.238 32.1335C65.2699 32.0745 65.3018 32.0155 65.3346 31.9547C65.5917 31.5714 65.9799 31.3108 66.3425 31.0331C66.4091 30.9812 66.4757 30.9292 66.5444 30.8758C67.6233 30.061 68.8716 29.6815 70.1635 29.3335C71.5283 28.9637 72.7648 28.3637 74.0087 27.703C74.0895 27.6603 74.1703 27.6175 74.2536 27.5735C74.3614 27.5158 74.3614 27.5158 74.4715 27.457C74.6362 27.3777 74.7788 27.3262 74.9574 27.2915C75.3288 28.2131 75.3296 29.1207 74.9548 30.0478C74.5987 30.7381 74.0649 31.2068 73.4337 31.6381C73.0258 31.9182 72.6654 32.2327 72.3067 32.5737C72.3545 32.5733 72.4023 32.573 72.4516 32.5726C72.6717 32.571 72.8919 32.5701 73.112 32.5691C73.1872 32.5685 73.2624 32.5679 73.3399 32.5673C73.7876 32.5659 74.2191 32.5885 74.6629 32.6471C74.2072 34.3963 73.5523 36.0222 72.7136 37.6227C72.6797 37.6882 72.6459 37.7536 72.611 37.821C72.5804 37.8791 72.5499 37.9372 72.5184 37.9971C72.4246 38.2187 72.4664 38.3599 72.5276 38.5896C72.5919 39.1278 72.5411 39.4623 72.2123 39.8973C72.1706 39.9499 72.1288 40.0026 72.0858 40.0569C71.5693 40.7694 71.2587 41.4437 71.2764 42.3335C71.2777 42.4349 71.2789 42.5364 71.2801 42.6378C71.2824 42.7954 71.285 42.9529 71.2884 43.1104C71.3075 44.0298 71.2251 44.8882 70.788 45.7151C70.7495 45.7893 70.7495 45.7893 70.7103 45.8649C70.4624 46.3261 70.1612 46.717 69.8032 47.0998C69.7697 47.1366 69.7363 47.1733 69.7018 47.2111C68.3613 48.673 66.5568 49.7655 64.6489 50.3095C64.5731 50.3314 64.5731 50.3314 64.4957 50.3537C62.263 50.9551 59.995 50.5612 57.7727 50.1435C57.5727 50.1064 57.3725 50.0709 57.1722 50.0354C57.04 50.0111 56.9077 49.9867 56.7755 49.9622C56.7149 49.9517 56.6543 49.9412 56.5919 49.9305C55.9047 49.7995 55.5194 49.42 55.1253 48.8692C55.0269 48.7241 54.9317 48.5774 54.8375 48.4296C54.8029 48.3756 54.7682 48.3217 54.7326 48.2661C54.3656 47.6904 54.0159 47.1057 53.6778 46.5129C53.6507 46.4662 53.6236 46.4194 53.5957 46.3712C51.8699 43.3736 50.8076 39.7128 50.7912 36.2534C50.7907 36.1801 50.7902 36.1068 50.7896 36.0312C50.7884 35.7958 50.7879 35.5603 50.7878 35.3249C50.7877 35.2443 50.7876 35.1638 50.7876 35.0808C50.7888 33.8639 50.8242 32.6759 51.0271 31.4733C51.0397 31.3959 51.0523 31.3185 51.0653 31.2388C51.8289 26.6715 53.7517 22.3317 56.844 18.8546C56.9037 18.787 56.9634 18.7194 57.0249 18.6497C57.9022 17.6763 58.8217 16.7199 59.8629 15.9201C59.9431 15.8542 60.023 15.7881 60.1028 15.7218C61.6185 14.4691 63.3291 13.4568 65.1024 12.6101C65.2342 12.5471 65.3654 12.4829 65.4966 12.4186C68.0946 11.1713 70.9206 10.4019 73.7793 10.0509C73.8357 10.0434 73.8922 10.0358 73.9503 10.028C81.2967 9.06656 88.9739 11.644 94.6007 16.5963Z" fill="#062982"/>
<path d="M50.4057 61.1534C50.8259 61.3556 51.0701 61.6427 51.2801 62.0521C51.3887 62.6653 51.1964 63.3027 51.0454 63.8954C51.0115 64.0286 51.0115 64.0286 50.977 64.1644C50.5258 65.9094 49.9669 67.6263 49.4224 69.3441C49.3684 69.5147 49.3143 69.6853 49.2603 69.8559C49.0987 70.3663 48.9368 70.8766 48.7738 71.3865C47.9531 73.6854 47.9531 73.6854 47.6721 76.0784C47.6723 76.1575 47.6724 76.2366 47.6726 76.318C47.6798 76.7504 47.7021 77.1009 47.9345 77.4724C48.1132 77.5793 48.1132 77.5793 48.3164 77.6145C48.4159 77.6382 48.4159 77.6382 48.5175 77.6624C48.5934 77.6773 48.5934 77.6773 48.6708 77.6925C48.6655 77.6285 48.6601 77.5646 48.6547 77.4987C48.5082 75.6257 48.7898 73.9974 50.0079 72.5094C50.8176 71.5879 51.7687 70.8474 53.0151 70.6495C53.7381 70.6021 54.2359 70.6498 54.8052 71.1218C55.0499 71.3359 55.2076 71.5138 55.241 71.8445C55.2399 71.9011 55.2389 71.9576 55.2378 72.0159C55.2373 72.0728 55.2369 72.1298 55.2364 72.1884C55.224 72.3369 55.224 72.3369 55.1504 72.4836C55.0146 72.467 55.0146 72.467 54.8558 72.4102C54.7569 72.2664 54.7569 72.2664 54.6718 72.0893C54.5471 71.8315 54.4419 71.679 54.1932 71.5299C53.6115 71.4643 53.2431 71.6761 52.7988 72.0159C52.1306 72.5709 51.6772 73.1998 51.2479 73.9509C51.1968 74.0401 51.1968 74.0401 51.1446 74.1311C50.7319 74.9024 50.3605 75.8302 50.3459 76.7112C50.344 76.7802 50.3421 76.8493 50.3401 76.9204C50.3494 77.1081 50.3494 77.1081 50.4635 77.2399C50.5873 77.344 50.5873 77.344 50.7831 77.3302C51.7545 77.0198 52.172 75.9992 52.6065 75.1583C52.6824 75.0108 52.7583 74.8632 52.8341 74.7157C53.7204 73.0074 53.7204 73.0074 54.4141 72.7771C54.8763 72.7352 54.8763 72.7352 55.1044 72.9146C55.3696 73.2602 55.3256 73.6028 55.2976 74.0242C55.2451 74.3391 55.17 74.646 55.0905 74.9551C55.0713 75.034 55.0521 75.1129 55.0323 75.1942C54.9496 75.5264 54.8658 75.847 54.7316 76.1624C54.5983 76.4979 54.6104 76.8227 54.6211 77.1789C54.6226 77.2747 54.6226 77.2747 54.6242 77.3723C54.6267 77.528 54.6307 77.6836 54.635 77.8392C54.8044 77.8711 54.8044 77.8711 55.0031 77.8392C55.1878 77.6758 55.1878 77.6758 55.3483 77.4586C55.4047 77.388 55.4612 77.3173 55.5194 77.2445C55.8163 76.8139 55.852 76.4125 55.9097 75.9042C56.0748 74.5964 56.4998 73.4277 57.3593 72.4102C57.4155 72.3361 57.4717 72.2619 57.5296 72.1856C58.2788 71.3697 59.3093 70.7162 60.4369 70.6346C61.129 70.6236 61.6703 70.7068 62.1865 71.1926C62.4346 71.4666 62.5248 71.708 62.5274 72.0709C62.5205 72.2026 62.5205 72.2026 62.5136 72.3369C62.4164 72.3369 62.3192 72.3369 62.219 72.3369C62.0847 72.1738 62.0847 72.1738 61.9475 71.9655C61.7555 71.6991 61.7555 71.6991 61.4729 71.5605C61.2923 71.5776 61.1395 71.6194 60.9673 71.6766C60.8702 71.7013 60.8702 71.7013 60.7711 71.7265C59.643 72.0589 58.9542 73.1174 58.4132 74.0976C58.17 74.5576 57.9871 75.0271 57.8333 75.5236C57.8148 75.5826 57.7963 75.6416 57.7772 75.7023C57.6297 76.2159 57.5791 76.7329 57.7275 77.2523C57.8303 77.2498 57.9331 77.2447 58.0358 77.2385C58.0931 77.236 58.1503 77.2334 58.2093 77.2308C59.125 76.9682 59.8679 75.1717 60.3046 74.3911C60.3602 74.2897 60.4158 74.1882 60.4711 74.0867C60.4968 74.0402 60.5226 73.9938 60.549 73.9459C60.6169 73.8228 60.6836 73.6992 60.7501 73.5755C60.9861 73.2278 61.2698 72.9863 61.6806 72.8642C61.7356 72.8471 61.7905 72.8299 61.8471 72.8123C61.9981 72.7771 61.9981 72.7771 62.219 72.7771C62.2839 72.8967 62.3463 73.0178 62.4077 73.1393C62.4427 73.2065 62.4778 73.2738 62.5138 73.343C62.6862 73.9094 62.457 74.5116 62.3065 75.0651C62.277 75.1763 62.277 75.1763 62.2469 75.2897C62.1377 75.6988 62.0206 76.1045 61.8969 76.5095C61.7839 76.8974 61.7375 77.2163 61.7772 77.6191C61.9002 77.8556 61.9002 77.8556 62.1178 77.8896C62.5542 77.801 62.7956 77.4663 63.0531 77.1213C63.3055 76.6944 63.3243 76.2077 63.3783 75.7246C63.5771 74.0421 63.9047 72.0377 65.2609 70.8696C65.5644 70.6446 65.7397 70.6101 66.1215 70.6495C66.3509 70.878 66.4808 71.0612 66.5089 71.3837C66.5025 71.7458 66.3781 72.0639 66.255 72.4011C66.2297 72.4722 66.2044 72.5433 66.1783 72.6166C65.8938 73.4043 65.5816 74.1819 65.2669 74.958C65.2365 75.0336 65.2365 75.0336 65.2055 75.1108C65.1501 75.2483 65.0944 75.3856 65.0386 75.5229C64.8593 76.0165 64.7696 76.4957 64.7409 77.0184C64.7368 77.0734 64.7328 77.1284 64.7285 77.1851C64.7116 77.4722 64.7054 77.5935 64.8698 77.8392C65.1684 77.8392 65.3648 77.8381 65.6049 77.6535C66.1398 77.0795 66.2061 76.517 66.239 75.7596C66.3218 74.0363 67.0307 72.6863 68.2799 71.5161C68.8924 70.9901 69.6004 70.5322 70.4336 70.5853C70.8723 70.6508 71.1938 70.8316 71.4874 71.1676C71.7976 71.5948 71.7568 72.0481 71.7175 72.557C71.5866 73.1979 71.3279 73.7652 70.9812 74.3177C70.9526 74.3656 70.9239 74.4136 70.8944 74.463C70.7265 74.7058 70.5633 74.7949 70.2817 74.8496C69.9986 74.8623 69.9582 74.8373 69.7203 74.6524C69.5629 74.4186 69.5733 74.2413 69.6165 73.9637C69.6847 73.687 69.8142 73.4458 69.9458 73.1943C70.1834 72.7195 70.3458 72.2844 70.3922 71.75C69.8268 71.9071 69.5381 72.2097 69.2233 72.6899C69.1914 72.7382 69.1596 72.7865 69.1269 72.8362C68.4444 73.8971 67.9607 75.0984 67.9439 76.3719C67.9411 76.5013 67.9411 76.5013 67.9382 76.6333C67.9723 76.9895 68.0904 77.2304 68.3397 77.4861C68.7657 77.7537 69.224 77.901 69.7295 77.8392C70.317 77.6734 70.687 77.3871 71.1009 76.9496C71.182 76.8666 71.182 76.8666 71.2647 76.7819C71.6027 76.4318 71.9196 76.074 72.2074 75.6815C72.2401 75.643 72.2729 75.6045 72.3066 75.5649C72.3552 75.5649 72.4038 75.5649 72.4539 75.5649C72.2996 76.5331 71.427 77.3308 70.6821 77.9125C69.8254 78.5252 68.9251 78.6777 67.8887 78.5728C67.3308 78.4258 66.9689 78.0773 66.6369 77.6191C66.6126 77.5707 66.5883 77.5222 66.5633 77.4724C66.2873 77.5143 66.1616 77.6286 65.965 77.8208C65.5626 78.1869 65.1167 78.5049 64.5568 78.5453C64.2271 78.4906 64.0461 78.3856 63.8389 78.1326C63.4708 77.58 63.4708 77.58 63.4708 77.2523C63.4222 77.2523 63.3736 77.2523 63.3235 77.2523C63.3098 77.3037 63.2962 77.3552 63.2821 77.4082C62.9829 78.0043 62.3736 78.2081 61.7772 78.4261C61.7043 78.4503 61.6315 78.4745 61.5563 78.4995C61.6274 78.5001 61.6985 78.5006 61.7717 78.5013C62.4515 78.507 63.1314 78.5135 63.8112 78.5206C64.1605 78.5242 64.5097 78.5276 64.859 78.5304C66.9016 78.5473 68.931 78.5958 70.9582 78.8709C71.0443 78.8824 71.0443 78.8824 71.1322 78.8942C75.2978 79.4581 79.4159 80.4235 83.5262 81.2899C87.9617 82.2238 92.437 83.0874 96.9594 83.4653C97.013 83.4698 97.0665 83.4743 97.1217 83.4789C97.4893 83.5092 97.857 83.5362 98.225 83.5616C98.2997 83.567 98.2997 83.567 98.3758 83.5725C99.6243 83.6606 100.877 83.6529 102.127 83.6533C102.185 83.6533 102.243 83.6534 102.303 83.6534C104.216 83.6544 106.114 83.6098 108.018 83.4149C108.1 83.4066 108.1 83.4066 108.185 83.3982C112.371 82.9776 117.773 82.1308 120.683 78.7196C121.615 77.5564 122.305 76.2203 122.155 74.6845C122.003 73.7591 121.63 72.9168 120.864 72.3435C119.961 71.7462 119.055 71.5006 117.977 71.5024C117.902 71.5024 117.826 71.5025 117.749 71.5025C116.754 71.5172 115.775 71.6765 114.792 71.8233C113.445 72.0217 112.102 72.1186 110.742 72.1901C110.732 72.2453 110.722 72.3005 110.712 72.3574C110.471 73.4781 109.727 74.4627 108.957 75.2769C108.824 75.4099 108.824 75.4099 108.754 75.5649C108.706 75.5649 108.657 75.5649 108.607 75.5649C108.607 75.6133 108.607 75.6617 108.607 75.7116C107.563 76.852 105.803 77.9232 104.249 78.0131C102.916 78.0587 102.916 78.0587 102.348 77.6925C102.3 77.6613 102.251 77.6302 102.201 77.5982C101.846 77.3335 101.645 77.02 101.538 76.592C101.399 75.5105 101.858 74.6635 102.348 73.7308C102.251 73.7954 102.154 73.8599 102.057 73.9245C101.963 73.9866 101.87 74.0486 101.776 74.1106C101.481 74.306 101.187 74.5024 100.894 74.7C99.0065 75.9713 99.0065 75.9713 98.0777 76.4453C98.0327 76.4683 97.9877 76.4914 97.9413 76.5152C97.0972 76.9429 96.1688 77.3778 95.2061 77.3256C94.8508 77.1987 94.7113 77.0708 94.5434 76.7387C94.3027 75.5415 95.1793 74.1294 95.6479 73.0705C95.5801 73.13 95.5123 73.1895 95.4425 73.2508C94.9402 73.6894 94.4339 74.1187 93.9053 74.5257C93.6779 74.7011 93.4535 74.8789 93.2327 75.0625C92.0973 76.0062 90.889 76.7669 89.578 77.4473C89.451 77.5135 89.3248 77.5813 89.1995 77.6506C88.7969 77.8665 88.4745 77.9683 88.0178 77.9722C87.9649 77.974 87.912 77.9758 87.8576 77.9777C87.73 77.982 87.6024 77.9842 87.4748 77.9859C87.3539 77.7451 87.4365 77.5145 87.4748 77.2523C87.4389 77.2878 87.403 77.3234 87.366 77.36C85.588 79.0349 82.8143 79.145 80.4863 79.0998C79.8693 79.0633 79.344 78.9795 78.8598 78.5728C78.6387 78.3181 78.6157 78.1111 78.6205 77.7779C78.6519 77.5073 78.7674 77.292 78.8966 77.0551C78.9234 77.0042 78.9502 76.9532 78.9778 76.9008C79.6504 75.6392 80.507 74.5006 81.3579 73.3551C81.6394 72.9758 81.9173 72.5943 82.1916 72.2098C82.437 71.8658 82.6845 71.5234 82.9326 71.1814C82.9931 71.098 82.9931 71.098 83.0548 71.0129C83.1371 70.8994 83.2195 70.786 83.3018 70.6726C83.5025 70.396 83.703 70.1192 83.9036 69.8425C83.9834 69.7324 84.0631 69.6224 84.1429 69.5123C84.1824 69.4579 84.2219 69.4034 84.2626 69.3473C84.6215 68.8521 84.6215 68.8521 84.7414 68.6868C84.8206 68.5775 84.8997 68.4681 84.9787 68.3586C85.186 68.0718 85.3951 67.7865 85.6072 67.5031C85.6728 67.4147 85.6728 67.4147 85.7398 67.3245C85.8233 67.2121 85.9073 67.1001 85.992 66.9886C86.2254 66.6729 86.3615 66.4119 86.4439 66.0276C85.7105 65.9672 85.0195 66.1363 84.3087 66.2941C84.1613 66.321 84.1613 66.321 83.9404 66.321C83.9404 66.2726 83.9404 66.2242 83.9404 66.1743C85.7028 65.255 87.4483 64.4781 89.4628 64.4135C89.1495 65.4104 88.5262 66.2008 87.9033 67.0232C87.6939 67.3016 87.4899 67.5838 87.2861 67.8662C87.207 67.9756 87.1279 68.085 87.0488 68.1944C87.0098 68.2484 86.9707 68.3024 86.9305 68.358C86.7318 68.633 86.5326 68.9076 86.3335 69.1822C86.2537 69.2923 86.1739 69.4023 86.0942 69.5123C84.6583 71.4932 84.6583 71.4932 84.5387 71.6582C84.4589 71.7683 84.3791 71.8784 84.2994 71.9886C84.1005 72.2631 83.9012 72.5374 83.7011 72.8112C82.0972 74.6911 82.0972 74.6911 81.216 76.8533C81.2631 77.1179 81.2631 77.1179 81.4792 77.2259C81.7547 77.3348 82.0144 77.3823 82.3067 77.4128C82.3797 77.4218 82.3797 77.4218 82.4541 77.431C83.6194 77.5647 84.7597 77.3738 85.8917 77.1055C86.0137 77.0768 86.0137 77.0768 86.1382 77.0475C86.5499 76.9647 86.5499 76.9647 86.8857 76.7387C86.9338 76.6049 86.9338 76.6049 86.9677 76.4504C86.9819 76.3925 86.9961 76.3346 87.0108 76.2749C87.0332 76.1822 87.0332 76.1822 87.056 76.0876C87.4992 74.3389 88.4377 72.9551 89.6837 71.6766C89.7411 71.6166 89.7411 71.6166 89.7997 71.5553C90.3462 70.984 90.9189 70.4763 91.5538 70.0043C91.6597 69.9249 91.7638 69.8431 91.8676 69.7611C92.8154 69.0313 93.9005 68.5204 95.0588 68.2285C95.1164 68.2138 95.1741 68.1992 95.2334 68.1841C96.2882 68.0263 97.2165 68.1684 98.1514 68.6687C98.1514 68.7171 98.1514 68.7655 98.1514 68.8154C97.7319 68.9597 97.3771 68.9722 96.9364 68.9575C94.7653 68.927 93.1428 69.9589 91.6257 71.4061C90.5306 72.5293 89.3177 74.0896 89.3109 75.7116C89.3132 75.8206 89.3132 75.8206 89.3155 75.9317C90.2145 75.9919 90.684 75.6971 91.3695 75.1694C91.5239 75.0518 91.6808 74.9388 91.8394 74.827C92.708 74.2142 93.5536 73.5713 94.3961 72.9238C94.472 72.8656 94.472 72.8656 94.5493 72.8062C95.0057 72.4548 95.454 72.0966 95.8918 71.7224C96.2602 71.4079 96.6386 71.1084 97.0239 70.8146C97.0737 70.7765 97.1235 70.7385 97.1748 70.6993C97.3276 70.5836 97.4815 70.4695 97.6359 70.356C97.7206 70.2936 97.7206 70.2936 97.807 70.2299C98.2689 69.8978 98.7501 69.6257 99.2558 69.3656C99.3321 69.3253 99.4083 69.285 99.4868 69.2435C99.5957 69.1871 99.5957 69.1871 99.7068 69.1295C99.7723 69.0955 99.8378 69.0615 99.9053 69.0265C99.9847 68.9946 99.9847 68.9946 100.066 68.9621C100.114 68.9863 100.163 69.0105 100.213 69.0355C100.108 69.1994 100.004 69.3633 99.899 69.5273C99.8064 69.6722 99.7138 69.8172 99.6213 69.9621C99.3871 70.3289 99.1528 70.6956 98.9179 71.0619C98.7044 71.3949 98.4918 71.7285 98.2796 72.0623C98.1494 72.2666 98.0181 72.4702 97.8867 72.6739C97.0256 73.9781 97.0256 73.9781 96.826 75.4915C97.4019 75.4716 97.8488 75.3675 98.3631 75.111C98.429 75.0788 98.4949 75.0467 98.5627 75.0136C99.3287 74.6283 100.028 74.1483 100.728 73.6574C100.84 73.5806 100.951 73.5038 101.062 73.427C103.465 71.7624 105.047 70.088 106.398 67.4948C106.442 67.4118 106.486 67.3288 106.531 67.2432C107.193 65.978 107.711 64.7028 108.139 63.3408C108.285 62.8774 108.438 62.4184 108.614 61.965C108.665 61.8325 108.665 61.8325 108.717 61.6973C108.83 61.4742 108.905 61.3792 109.123 61.2589C109.348 61.2222 109.348 61.2222 109.564 61.2589C109.913 61.678 109.889 62.2084 109.859 62.7262C109.814 62.9955 109.747 63.2562 109.675 63.5194C109.655 63.5928 109.635 63.6661 109.614 63.7417C108.911 66.2524 107.57 68.4617 106.144 70.6229C105.833 71.0946 105.526 71.5688 105.22 72.0434C105.184 72.0997 105.147 72.156 105.11 72.2139C103.741 74.1067 103.741 74.1067 103.306 76.2985C103.461 76.5963 103.583 76.7613 103.895 76.8854C104.875 77.024 105.831 76.6422 106.605 76.073C106.812 75.9092 107.011 75.7398 107.208 75.5649C107.265 75.5152 107.322 75.4656 107.38 75.4144C108.208 74.6446 108.716 73.669 109.123 72.6303C109.149 72.5626 109.176 72.4949 109.203 72.4251C109.312 72.1245 109.402 71.8511 109.343 71.5299C109.189 71.3426 109.019 71.1981 108.83 71.0467C108.395 70.6889 108.136 70.3719 108.055 69.8058C108.108 69.432 108.217 69.1218 108.497 68.8572C108.787 68.6622 109.046 68.6292 109.388 68.689C110.162 68.9218 110.542 69.4326 110.925 70.1081C111.232 70.6477 111.621 71.162 112.245 71.3468C113.071 71.5042 113.905 71.355 114.714 71.1803C115.002 71.1185 115.29 71.061 115.579 71.0034C115.666 70.986 115.666 70.986 115.755 70.9683C117.82 70.5589 120.027 70.1741 121.911 71.3694C123.113 72.2205 123.747 73.3091 124.037 74.741C124.245 76.2551 123.91 77.6725 123.04 78.9305C122.899 79.111 122.751 79.2826 122.597 79.4532C122.545 79.514 122.493 79.5748 122.439 79.6375C118.897 83.6866 112.644 84.4655 107.56 84.8532C107.418 84.8629 107.276 84.8725 107.134 84.8821C107.012 84.8917 107.012 84.8917 106.887 84.9014C105.783 84.9788 104.678 84.9735 103.573 84.9738C103.518 84.9739 103.464 84.9739 103.408 84.9739C101.415 84.9746 99.4346 84.9068 97.4467 84.7547C97.1762 84.734 96.9056 84.7139 96.635 84.6937C95.2989 84.5937 93.9637 84.4855 92.629 84.3686C92.557 84.3623 92.485 84.356 92.4108 84.3495C86.9585 83.8674 81.6583 82.6246 76.3731 81.2495C72.2176 80.1699 68.1182 79.1868 63.8044 79.2004C63.5176 79.2012 63.2308 79.1997 62.944 79.1976C62.7197 79.1963 62.4954 79.1963 62.2711 79.1967C62.1651 79.1967 62.0592 79.1963 61.9532 79.1953C61.8068 79.1943 61.6604 79.1952 61.514 79.1963C61.4313 79.1963 61.3485 79.1963 61.2632 79.1963C60.9206 79.253 60.7442 79.4345 60.5368 79.7017C60.495 79.766 60.4532 79.8303 60.4102 79.8965C60.3627 79.9687 60.3153 80.0408 60.2664 80.1151C60.2167 80.1918 60.1671 80.2684 60.1159 80.3473C60.0108 80.5069 59.9055 80.6665 59.8001 80.8259C59.7484 80.9044 59.6966 80.9828 59.6433 81.0637C59.1186 81.8531 58.5735 82.6273 57.9484 83.3415C57.8882 83.4133 57.8882 83.4133 57.8267 83.4865C57.2572 84.1164 56.4439 84.4679 55.6071 84.5308C54.8694 84.5555 54.0783 84.4236 53.4568 84.0018C53.1051 83.6329 52.9751 83.3197 52.9877 82.8165C53.1014 81.9482 53.6568 81.2479 54.3036 80.6912C55.4178 79.8527 56.8532 79.336 58.2317 79.1973C58.6594 79.1281 58.9231 78.9258 59.2185 78.6233C59.5327 78.1426 59.7083 77.6609 59.8444 77.1055C59.8606 77.0417 59.8769 76.9779 59.8936 76.9121C59.933 76.7566 59.9716 76.601 60.0101 76.4453C59.962 76.5134 59.914 76.5816 59.8645 76.6519C58.6572 78.3581 58.6572 78.3581 57.8748 78.4995C57.4023 78.5387 57.0933 78.4683 56.6966 78.206C56.4988 78.0272 56.4988 78.0272 56.3285 77.8392C56.2601 77.7711 56.1918 77.703 56.1214 77.6328C56.0417 77.5534 56.0417 77.5534 55.9603 77.4724C55.9229 77.5219 55.8855 77.5715 55.847 77.6225C55.2011 78.4565 55.2011 78.4565 54.7592 78.5264C54.3149 78.5493 53.966 78.467 53.6041 78.206C53.143 77.7793 53.0633 77.3108 53.0058 76.7158C52.9995 76.6545 52.9931 76.5931 52.9866 76.5299C52.971 76.3795 52.9562 76.229 52.9414 76.0784C52.8652 76.2007 52.8652 76.2007 52.7875 76.3255C51.6111 78.1911 51.6111 78.1911 50.7379 78.4717C50.1465 78.5862 49.5666 78.2993 49.0389 78.0593C49.0077 78.0893 48.9765 78.1194 48.9443 78.1504C48.56 78.5022 48.2574 78.6462 47.7228 78.6462C47.2599 78.5692 46.8512 78.2724 46.5493 77.9217C45.7475 76.6181 45.9426 74.4497 46.2829 73.0227C46.9655 70.4127 47.9743 67.8823 48.9253 65.3609C49.0395 65.0582 49.1524 64.755 49.2646 64.4516C49.3121 64.3241 49.3602 64.1968 49.4086 64.0697C49.4837 63.8727 49.5571 63.6752 49.6303 63.4776C49.6534 63.4182 49.6764 63.3588 49.7002 63.2977C49.845 62.9001 49.8588 62.6282 49.7753 62.2126C49.4943 62.2126 49.4114 62.2173 49.1862 62.3593C49.0713 62.4783 49.0713 62.4783 48.9713 62.6213C48.9131 62.7008 48.9131 62.7008 48.8537 62.7819C48.8131 62.8392 48.7725 62.8964 48.7306 62.9554C48.6667 63.0451 48.6667 63.0451 48.6015 63.1366C48.2133 63.6892 47.8739 64.2533 47.5663 64.8537C47.531 64.9222 47.4957 64.9907 47.4594 65.0613C46.4077 67.1231 45.6548 69.2772 44.9192 71.4657C44.6854 72.161 44.4501 72.8554 44.1974 73.5442C44.1678 73.6254 44.1678 73.6254 44.1376 73.7083C43.9956 74.0904 43.8312 74.4593 43.6546 74.8267C43.6203 74.8985 43.6203 74.8985 43.5854 74.9719C43.4005 75.3354 43.1963 75.5516 42.8222 75.7176C42.4432 75.8304 42.1373 75.9138 41.7494 75.785C41.5327 75.5971 41.399 75.3979 41.3076 75.1247C41.271 74.544 41.3321 73.9676 41.3996 73.3915C41.4077 73.3146 41.4158 73.2377 41.4241 73.1585C41.5485 72.0765 41.841 71.0453 42.1912 70.0167C42.2091 69.9635 42.2269 69.9103 42.2454 69.8554C42.5124 69.0612 42.7956 68.2732 43.0842 67.4865C43.1171 67.3969 43.15 67.3073 43.1839 67.2149C43.3485 66.7668 43.5141 66.319 43.6809 65.8716C43.7428 65.7044 43.8047 65.5371 43.8666 65.3699C43.8949 65.2949 43.9231 65.2199 43.9523 65.1427C44.3301 64.246 44.3301 64.246 44.3316 63.322C44.2926 63.2449 44.2926 63.2449 44.2529 63.1663C43.9519 63.1829 43.7862 63.1948 43.5609 63.4022C43.1589 63.9675 42.8344 64.551 42.5409 65.1793C42.4934 65.2792 42.4458 65.379 42.3982 65.4788C42.0016 66.3132 41.6234 67.1557 41.2472 67.9992C39.423 72.0839 39.423 72.0839 38.2887 73.8042C38.2547 73.8558 38.2207 73.9074 38.1857 73.9605C37.621 74.8113 36.9995 75.594 36.3087 76.3475C36.1705 76.4998 36.0375 76.6551 35.9049 76.8121C34.3702 78.5532 32.023 80.0846 29.6738 80.3336C29.3746 80.3473 29.0758 80.3505 28.7764 80.3519C28.6593 80.3542 28.6593 80.3542 28.5398 80.3565C27.3294 80.3624 26.2966 79.9518 25.4189 79.1142C24.2787 77.8939 23.9911 76.3021 23.9903 74.6891C23.9894 74.5984 23.9885 74.5076 23.9876 74.4141C23.9868 73.9399 24.0074 73.5236 24.1514 73.0705C24.2 73.0705 24.2486 73.0705 24.2986 73.0705C24.3038 73.1339 24.3089 73.1974 24.3142 73.2627C24.431 76.1618 24.431 76.1618 25.8449 78.5728C26.6296 79.2254 27.5673 79.3942 28.562 79.3228C30.3668 79.1317 32.1406 77.9894 33.3749 76.7129C33.5026 76.592 33.5026 76.592 33.6499 76.592C33.6499 76.5436 33.6499 76.4951 33.6499 76.4453C33.6985 76.4453 33.7471 76.4453 33.7971 76.4453C33.7971 76.3968 33.7971 76.3484 33.7971 76.2985C33.8457 76.2985 33.8943 76.2985 33.9444 76.2985C33.9444 76.2501 33.9444 76.2017 33.9444 76.1518C33.993 76.1518 34.0416 76.1518 34.0917 76.1518C34.0917 76.1034 34.0917 76.055 34.0917 76.0051C34.1403 76.0051 34.1889 76.0051 34.2389 76.0051C34.2571 75.9628 34.2752 75.9205 34.2939 75.877C34.401 75.685 34.5251 75.5642 34.6853 75.4136C35.0599 75.0475 35.3882 74.6552 35.7116 74.2443C35.7477 74.1989 35.7838 74.1535 35.8209 74.1067C36.4214 73.3492 36.9685 72.5703 37.4787 71.75C37.5064 71.706 37.534 71.662 37.5625 71.6167C38.2533 70.5151 38.8579 69.3604 39.4508 68.2043C40.0971 66.9471 40.8034 65.7237 41.6021 64.5557C41.6472 64.4896 41.6472 64.4896 41.6932 64.4223C42.099 63.8441 42.5532 63.377 43.1208 62.9554C43.1751 62.9138 43.2294 62.8722 43.2853 62.8293C43.7678 62.4657 44.154 62.2775 44.7683 62.3593C45.0368 62.4421 45.2183 62.5579 45.3783 62.7901C46.0236 64.009 45.4881 65.4371 45.1095 66.6578C45.0581 66.8222 45.0065 66.9865 44.9549 67.1508C44.8725 67.4128 44.7908 67.6749 44.7092 67.9371C44.4273 68.8408 44.1413 69.7431 43.8511 70.6441C43.8047 70.7881 43.7585 70.9322 43.7123 71.0763C43.6972 71.1233 43.6821 71.1703 43.6666 71.2187C43.6365 71.3126 43.6064 71.4065 43.5763 71.5005C43.4745 71.8176 43.3714 72.1343 43.2682 72.4509C43.2144 72.618 43.1607 72.7852 43.107 72.9524C43.0823 73.0269 43.0577 73.1014 43.0323 73.1782C42.88 73.6565 42.8049 74.11 42.7802 74.6112C43.2193 73.8014 43.5285 72.9511 43.8479 72.0893C43.9067 71.9318 43.9655 71.7744 44.0244 71.617C44.3182 70.8306 44.609 70.043 44.8985 69.255C47.4537 62.3009 47.4537 62.3009 49.3243 61.1259C49.7171 60.9772 50.0199 61.0038 50.4057 61.1534ZM54.1932 81.3607C54.0683 81.5169 53.9545 81.6681 53.8434 81.8329C53.815 81.8731 53.7866 81.9132 53.7574 81.9546C53.4641 82.3819 53.3364 82.7481 53.4065 83.2592C53.4946 83.5315 53.6624 83.628 53.8986 83.7817C54.3558 84.0094 55.2251 83.901 55.7072 83.7679C56.6014 83.4427 57.0458 82.8083 57.5526 82.0393C57.5969 81.9726 57.6411 81.9058 57.6867 81.8371C57.9922 81.3749 58.2942 80.9104 58.5927 80.4436C58.648 80.3575 58.648 80.3575 58.7044 80.2697C58.8727 80.0042 59.0241 79.7523 59.1265 79.4532C59.0536 79.3806 59.0536 79.3806 58.9792 79.3065C57.3694 79.3065 55.3714 80.3086 54.1932 81.3607Z" fill="#062982"/>
<path d="M82.0996 85.469C83.2041 85.469 83.2041 85.469 83.511 85.7424C83.589 85.8597 83.6631 85.9797 83.7333 86.1018C83.7906 86.1907 83.7906 86.1907 83.8491 86.2814C83.9227 86.3964 83.9948 86.5124 84.0651 86.6294C84.1884 86.8346 84.3212 87.0319 84.4558 87.2297C84.7961 86.9162 85.0542 86.5607 85.321 86.1843C85.4065 86.0647 85.492 85.9451 85.5776 85.8255C85.6149 85.7729 85.6523 85.7203 85.6908 85.6661C85.7812 85.5424 85.7812 85.5424 85.8548 85.469C86.195 85.469 86.5352 85.469 86.8857 85.469C86.8857 86.9458 86.8857 88.4226 86.8857 89.9442C86.5941 89.9442 86.3025 89.9442 86.0021 89.9442C85.9778 88.9516 85.9535 87.959 85.9285 86.9363C85.6024 87.3784 85.6024 87.3784 85.2765 87.8207C85.0574 88.1174 84.8376 88.4121 84.6031 88.697C84.412 88.6697 84.326 88.6421 84.1919 88.4999C84.1552 88.4473 84.1186 88.3947 84.0808 88.3405C84.0399 88.2828 83.9989 88.2251 83.9568 88.1657C83.9149 88.105 83.8731 88.0443 83.83 87.9817C83.7464 87.8628 83.6628 87.744 83.5791 87.6252C83.5425 87.5723 83.5058 87.5193 83.468 87.4648C83.3374 87.2838 83.1966 87.1103 83.0568 86.9363C83.0325 87.9289 83.0082 88.9215 82.9832 89.9442C82.6916 89.9442 82.4 89.9442 82.0996 89.9442C82.0996 88.4674 82.0996 86.9906 82.0996 85.469Z" fill="#062982"/>
<path d="M73.4849 85.4694C73.8706 85.4634 74.2563 85.4573 74.6538 85.4511C74.7739 85.4484 74.8941 85.4457 75.0179 85.443C75.7571 85.4374 76.3668 85.4907 76.9364 86.0013C77.4883 86.6045 77.5699 87.2507 77.5547 88.038C77.5108 88.677 77.2008 89.1551 76.7247 89.5778C76.2814 89.8587 75.8844 89.9556 75.3616 89.9518C75.3141 89.9517 75.2665 89.9517 75.2175 89.9516C75.0404 89.9512 74.8632 89.9502 74.686 89.9492C74.2896 89.9477 73.8932 89.9462 73.4849 89.9446C73.4849 88.4678 73.4849 86.991 73.4849 85.4694ZM74.3684 86.2764C74.3684 87.2206 74.3684 88.1648 74.3684 89.1376C75.4139 89.1784 75.4139 89.1784 76.2737 88.7479C76.5993 88.3376 76.6925 88.0243 76.6769 87.5056C76.6256 87.1051 76.466 86.8287 76.1862 86.5424C75.5878 86.1819 75.0798 86.2764 74.3684 86.2764Z" fill="#062982"/>
<path d="M78.0498 85.469C79.1675 85.469 80.2853 85.469 81.4369 85.469C81.4369 85.7595 81.4369 86.05 81.4369 86.3494C80.6107 86.3494 79.7846 86.3494 78.9334 86.3494C78.9334 86.6641 78.9334 86.9788 78.9334 87.3031C79.7352 87.3031 80.5371 87.3031 81.3632 87.3031C81.3632 87.5694 81.3632 87.8357 81.3632 88.1101C80.5614 88.1101 79.7595 88.1101 78.9334 88.1101C78.9334 88.4248 78.9334 88.7396 78.9334 89.0638C79.7595 89.0638 80.5857 89.0638 81.4369 89.0638C81.4369 89.3544 81.4369 89.6449 81.4369 89.9442C80.3191 89.9442 79.2014 89.9442 78.0498 89.9442C78.0498 88.4674 78.0498 86.9906 78.0498 85.469Z" fill="#062982"/>
<path d="M77.461 35.3616C77.8006 36.6939 77.8006 36.6939 77.6082 37.269C77.6568 37.3175 77.7054 37.3659 77.7555 37.4158C77.7477 37.6367 77.7306 37.8478 77.7049 38.0669C77.6941 38.164 77.6941 38.164 77.6831 38.2631C77.6595 38.4699 77.6342 38.6765 77.6082 38.8831C77.5997 38.9513 77.5912 39.0196 77.5825 39.09C77.5571 39.2887 77.5301 39.4871 77.5024 39.6855C77.4943 39.7466 77.4862 39.8077 77.4779 39.8707C77.43 40.194 77.3866 40.4625 77.1664 40.7172C76.9519 40.8286 76.9519 40.8286 76.6786 40.9235C76.629 40.941 76.5794 40.9585 76.5283 40.9765C75.7409 41.2501 74.9433 41.496 74.1475 41.7443C74.0216 41.3678 74.2363 41.0262 74.373 40.6667C74.4013 40.5887 74.4295 40.5106 74.4586 40.4301C74.6735 39.8591 74.9145 39.3501 75.4269 38.9931C75.7637 38.7149 75.9141 38.3346 76.0968 37.9494C76.3166 37.486 76.5542 37.0317 76.791 36.5767C76.8669 36.4308 76.9425 36.2846 77.018 36.1385C77.0651 36.0477 77.1122 35.957 77.1593 35.8662C77.2014 35.785 77.2435 35.7037 77.2869 35.6199C77.3873 35.4349 77.3873 35.4349 77.461 35.3616Z" fill="#062982"/>
<path d="M70.2447 85.469C70.5848 85.469 70.925 85.469 71.2755 85.469C71.7997 86.5527 72.2952 87.6484 72.786 88.7475C72.9209 89.0472 73.0595 89.3452 73.1992 89.6427C73.2636 89.7975 73.2636 89.7975 73.2636 89.9442C72.9234 89.9442 72.5832 89.9442 72.2327 89.9442C71.9382 89.3023 71.9382 89.3023 71.9382 89.1372C71.1606 89.1372 70.3831 89.1372 69.582 89.1372C69.5334 89.2825 69.4848 89.4277 69.4347 89.5774C69.3618 89.759 69.3618 89.759 69.2874 89.9442C68.9473 89.9442 68.6071 89.9442 68.2566 89.9442C68.3437 89.6838 68.4226 89.4483 68.5341 89.2021C68.5589 89.147 68.5838 89.0918 68.6094 89.035C68.636 88.9765 68.6626 88.918 68.69 88.8578C68.718 88.7959 68.746 88.734 68.7749 88.6702C68.8341 88.5393 68.8935 88.4083 68.9529 88.2775C69.0422 88.081 69.1311 87.8844 69.22 87.6878C69.556 86.9456 69.8973 86.2061 70.2447 85.469ZM70.6864 86.5695C70.322 87.441 70.322 87.441 69.9501 88.3302C70.4847 88.3302 71.0193 88.3302 71.57 88.3302C71.327 87.7492 71.0841 87.1681 70.8337 86.5695C70.7851 86.5695 70.7365 86.5695 70.6864 86.5695Z" fill="#062982"/>
<path d="M61.409 85.469C61.7491 85.469 62.0893 85.469 62.4398 85.469C62.964 86.5527 63.4595 87.6484 63.9503 88.7475C64.0852 89.0472 64.2238 89.3452 64.3635 89.6427C64.4279 89.7975 64.4279 89.7975 64.4279 89.9442C64.0877 89.9442 63.7475 89.9442 63.397 89.9442C63.1025 89.3023 63.1025 89.3023 63.1025 89.1372C62.3249 89.1372 61.5474 89.1372 60.7463 89.1372C60.6977 89.2825 60.6491 89.4277 60.599 89.5774C60.5261 89.759 60.5261 89.759 60.4517 89.9442C60.1116 89.9442 59.7714 89.9442 59.4209 89.9442C59.508 89.6838 59.5869 89.4483 59.6984 89.2021C59.7232 89.147 59.7481 89.0918 59.7737 89.035C59.8003 88.9765 59.8269 88.918 59.8543 88.8578C59.8823 88.7959 59.9103 88.734 59.9392 88.6702C59.9984 88.5393 60.0578 88.4083 60.1172 88.2775C60.2065 88.081 60.2954 87.8844 60.3843 87.6878C60.7203 86.9456 61.0616 86.2061 61.409 85.469ZM61.8507 86.5695C61.4863 87.441 61.4863 87.441 61.1144 88.3302C61.649 88.3302 62.1836 88.3302 62.7343 88.3302C62.4913 87.7492 62.2484 87.1681 61.998 86.5695C61.9494 86.5695 61.9008 86.5695 61.8507 86.5695Z" fill="#062982"/>
<path d="M67.7558 85.5996C67.9624 85.739 68.1471 85.8874 68.3305 86.0561C68.2641 86.1425 68.1964 86.2279 68.128 86.3129C68.0717 86.3844 68.0717 86.3844 68.0141 86.4573C67.8887 86.5696 67.8887 86.5696 67.5942 86.5696C67.5289 86.5348 67.4636 86.5 67.3963 86.4642C66.8984 86.2302 66.4414 86.2353 65.9228 86.4129C65.5911 86.5762 65.3969 86.8159 65.2498 87.1505C65.1005 87.6376 65.1439 88.1225 65.3806 88.5734C65.6207 88.9198 65.9422 89.0395 66.3425 89.1374C66.7567 89.2108 67.0744 89.0986 67.4412 88.9153C67.7218 88.7844 67.7218 88.7844 67.8887 88.7706C68.0302 88.8706 68.0302 88.8706 68.1648 89.0136C68.21 89.0602 68.2552 89.1068 68.3018 89.1549C68.4042 89.2841 68.4042 89.2841 68.4042 89.4308C68.2773 89.5363 68.2773 89.5363 68.105 89.6509C68.0495 89.6888 67.994 89.7266 67.9368 89.7656C67.2932 90.1131 66.4567 90.1207 65.75 89.9699C65.2134 89.7765 64.7485 89.4311 64.4741 88.9265C64.1549 88.1886 64.1276 87.4484 64.4096 86.6889C64.6858 86.0746 65.1118 85.7138 65.7338 85.4606C66.3651 85.2905 67.1735 85.2846 67.7558 85.5996Z" fill="#062982"/>
<path d="M87.2539 85.4689C87.6292 85.377 87.9978 85.3037 88.3584 85.4689C88.7165 85.837 88.9399 86.3187 89.1617 86.7765C89.2452 86.9508 89.2452 86.9508 89.3892 87.1563C89.7265 86.6816 90.0543 86.2016 90.3758 85.7162C90.4937 85.5423 90.4937 85.5423 90.5673 85.4689C90.7537 85.4635 90.9379 85.4621 91.1242 85.4643C91.2027 85.4648 91.2027 85.4648 91.2828 85.4653C91.4125 85.4662 91.5421 85.4675 91.6718 85.4689C91.4646 85.8414 91.2393 86.1924 90.9953 86.5419C90.9603 86.5935 90.9252 86.6452 90.8891 86.6985C90.7263 86.937 90.5641 87.1661 90.3697 87.3801C89.7265 88.1379 89.8124 88.9927 89.831 89.9441C89.5394 89.9441 89.2479 89.9441 88.9474 89.9441C88.9609 89.8345 88.9744 89.7249 88.9883 89.612C89.0935 88.0689 88.4012 87.1353 87.499 85.9527C87.2539 85.6301 87.2539 85.6301 87.2539 85.4689Z" fill="#062982"/>
<path d="M67.7412 67.4216C67.9555 68.0622 67.7776 68.725 67.5203 69.3291C67.3244 69.638 67.1232 69.8449 66.784 69.9894C66.4776 70.0358 66.3647 70.0034 66.0983 69.8381C65.8588 69.5772 65.8208 69.4603 65.8267 69.109C65.9355 68.4848 66.3745 68.196 66.8639 67.8461C67.4823 67.4216 67.4823 67.4216 67.7412 67.4216Z" fill="#062982"/>
</svg>
