<svg width="16" height="16" viewBox="0 0 16 16" fill="none" xmlns="http://www.w3.org/2000/svg">
<g clip-path="url(#clip0_73_610)">
<mask id="mask0_73_610" style="mask-type:luminance" maskUnits="userSpaceOnUse" x="0" y="0" width="16" height="16">
<path d="M16 0H0V16H16V0Z" fill="white"/>
</mask>
<g mask="url(#mask0_73_610)">
<path fill-rule="evenodd" clip-rule="evenodd" d="M4.66675 7C6.04746 7 7.16675 5.88071 7.16675 4.5C7.16675 3.11929 6.04746 2 4.66675 2C3.28603 2 2.16675 3.11929 2.16675 4.5C2.16675 5.88071 3.28603 7 4.66675 7ZM4.66675 6C5.49517 6 6.16675 5.32843 6.16675 4.5C6.16675 3.67157 5.49517 3 4.66675 3C3.83832 3 3.16675 3.67157 3.16675 4.5C3.16675 5.32843 3.83832 6 4.66675 6Z" fill="black"/>
<path fill-rule="evenodd" clip-rule="evenodd" d="M13.8333 4.5C13.8333 5.88071 12.714 7 11.3333 7C9.95252 7 8.83325 5.88071 8.83325 4.5C8.83325 3.11929 9.95252 2 11.3333 2C12.714 2 13.8333 3.11929 13.8333 4.5ZM12.8333 4.5C12.8333 5.32843 12.1617 6 11.3333 6C10.5049 6 9.83325 5.32843 9.83325 4.5C9.83325 3.67157 10.5049 3 11.3333 3C12.1617 3 12.8333 3.67157 12.8333 4.5Z" fill="black"/>
<path d="M9.74906 9.2654C10.2444 9.0936 10.7771 9 11.3335 9C12.7819 9 14.0806 9.63587 14.9679 10.647C14.973 10.6528 15.0001 10.6902 15.0001 10.7779V12C15.0001 12.1841 14.8509 12.3333 14.6668 12.3333H10.3099C10.2572 12.7013 10.1187 13.0417 9.91526 13.3333H14.6668C15.4032 13.3333 16.0001 12.7364 16.0001 12V10.7779C16.0001 10.4889 15.9101 10.2045 15.7195 9.9874C14.6504 8.76907 13.0817 8 11.3335 8C10.5051 8 9.71713 8.17267 9.00346 8.48393C8.98533 8.4918 8.9676 8.5002 8.9502 8.50893C9.23646 8.73947 9.50366 8.99253 9.74906 9.2654Z" fill="black"/>
<path fill-rule="evenodd" clip-rule="evenodd" d="M8 13.3333C8.31533 13.3333 8.60507 13.2239 8.83333 13.0409C9.13813 12.7965 9.33333 12.4211 9.33333 12V10.7779C9.33333 10.4889 9.24327 10.2045 9.05273 9.9874C8.8406 9.74567 8.60873 9.5216 8.3598 9.31773C7.354 8.49413 6.06803 8 4.66667 8C2.91839 8 1.34974 8.76907 0.280605 9.9874C0.090064 10.2045 0 10.4889 0 10.7779V12C0 12.7364 0.596954 13.3333 1.33333 13.3333H8ZM8.30113 10.647C8.3062 10.6528 8.33333 10.6902 8.33333 10.7779V12C8.33333 12.1841 8.18407 12.3333 8 12.3333H1.33333C1.14924 12.3333 1 12.1841 1 12V10.7779C1 10.6902 1.02716 10.6528 1.03223 10.647C1.91956 9.63587 3.21825 9 4.66667 9C6.11508 9 7.4138 9.63587 8.30113 10.647Z" fill="black"/>
</g>
</g>
<defs>
<clipPath id="clip0_73_610">
<rect width="16" height="16" fill="white"/>
</clipPath>
</defs>
</svg>
