<svg width="16" height="16" viewBox="0 0 16 16" fill="none" xmlns="http://www.w3.org/2000/svg">
<path d="M10.6666 6.66675C10.6666 6.94288 10.4427 7.16675 10.1666 7.16675H5.83325C5.55711 7.16675 5.33325 6.94288 5.33325 6.66675C5.33325 6.39061 5.55711 6.16675 5.83325 6.16675H10.1666C10.4427 6.16675 10.6666 6.39061 10.6666 6.66675Z" fill="black"/>
<path d="M9.33325 9.33325C9.33325 9.60939 9.10939 9.83325 8.83325 9.83325H5.83325C5.55711 9.83325 5.33325 9.60939 5.33325 9.33325C5.33325 9.05712 5.55711 8.83325 5.83325 8.83325H8.83325C9.10939 8.83325 9.33325 9.05712 9.33325 9.33325Z" fill="black"/>
<path fill-rule="evenodd" clip-rule="evenodd" d="M6.66675 0.666748C5.93037 0.666748 5.33341 1.2637 5.33341 2.00008H4.00008C3.2637 2.00008 2.66675 2.59703 2.66675 3.33341V13.3334C2.66675 14.0698 3.2637 14.6667 4.00008 14.6667H12.0001C12.7365 14.6667 13.3334 14.0698 13.3334 13.3334V3.33341C13.3334 2.59703 12.7365 2.00008 12.0001 2.00008H10.6667C10.6667 1.2637 10.0698 0.666748 9.33341 0.666748H6.66675ZM9.66675 2.00008C9.66675 1.81599 9.51748 1.66675 9.33341 1.66675H6.66675C6.48265 1.66675 6.33341 1.81599 6.33341 2.00008V3.00008C6.33341 3.18417 6.48265 3.33341 6.66675 3.33341H9.33341C9.51748 3.33341 9.66675 3.18417 9.66675 3.00008V2.00008ZM10.6667 3.00008C10.6667 3.73646 10.0698 4.33341 9.33341 4.33341H6.66675C5.93037 4.33341 5.33341 3.73646 5.33341 3.00008H4.00008C3.81599 3.00008 3.66675 3.14932 3.66675 3.33341V13.3334C3.66675 13.5175 3.81599 13.6667 4.00008 13.6667H12.0001C12.1841 13.6667 12.3334 13.5175 12.3334 13.3334V3.33341C12.3334 3.14932 12.1841 3.00008 12.0001 3.00008H10.6667Z" fill="black"/>
</svg>
