<svg width="17" height="17" viewBox="0 0 17 17" fill="none" xmlns="http://www.w3.org/2000/svg">
<path fill-rule="evenodd" clip-rule="evenodd" d="M2.125 4.46241C2.125 3.90256 2.45471 3.39522 2.9663 3.16785L7.92462 0.964144C8.29097 0.80134 8.70903 0.80134 9.07538 0.964144L14.0337 3.16785C14.5453 3.39522 14.875 3.90256 14.875 4.46241V9.20845C14.875 13.371 10.382 15.5368 8.93988 16.1246C8.65605 16.2404 8.34402 16.2404 8.06012 16.1246C6.61804 15.5368 2.125 13.371 2.125 9.20845V4.46241ZM11.6875 6.02092C11.895 6.22838 11.895 6.56476 11.6875 6.77222L8.1673 10.2924C7.95983 10.4999 7.62351 10.4999 7.41604 10.2924L5.66667 8.54304C5.4592 8.33557 5.4592 7.99925 5.66667 7.79178C5.87413 7.58431 6.2105 7.58431 6.41797 7.79178L7.79167 9.16545L10.9362 6.02092C11.1436 5.81346 11.48 5.81346 11.6875 6.02092Z" fill="#062982"/>
</svg>
